#!OML:ASF \\sashay\E\basketball\basketball\Project 1\Capture day 1\Session 1\Subject.ASF
:FULLY-SPECIFIED
:DEGREES
118
root 20.1029 16.5048 -20.5517 -176.001 40.1569 -173.445
lowerback 3.55994 10.0328 5.54328
upperback 3.46826 13.6729 -0.625147
thorax 3.07683 7.05651 -3.5774
lowerneck 9.23067 -12.6271 -18.2254
upperneck -10.8038 -17.2773 23.0565
head -0.845076 -9.10322 10.1944
rclavicle 1.76421e-013 -2.22639e-014
rhumerus -15.7937 -11.7367 -83.5367
rradius 35.7703
rwrist 3.95652
rhand -19.8606 23.1476
rfingers 7.12502
rthumb 6.47434 -6.73344
lclavicle 1.76421e-013 -2.22639e-014
lhumerus -27.2074 21.3684 73.506
lradius 132.056
lwrist 62.4387
lhand 8.10719 10.1321
lfingers 7.12502
lthumb 33.3289 37.0623
rfemur 31.3137 -10.1834 21.4845
rtibia 26.67
rfoot 7.15429 -5.93833
rtoes -23.232
lfemur -34.9887 -3.14004 -11.2986
ltibia 25.2009
lfoot 17.6224 -2.56636
ltoes -27.0897
119
root 20.4971 16.4569 -20.9199 -176.012 40.902 -173.12
lowerback 3.80076 10.1204 6.02861
upperback 3.11322 13.8002 -0.607219
thorax 2.69811 7.10798 -3.88322
lowerneck 9.14703 -12.623 -17.0648
upperneck -10.7205 -17.1425 22.1803
head -1.03967 -9.02636 9.75155
rclavicle 1.47747e-013 -6.75868e-015
rhumerus -16.7452 -13.1408 -83.3937
rradius 35.9236
rwrist 3.7783
rhand -19.8705 23.155
rfingers 7.12502
rthumb 6.46485 -6.72629
lclavicle 1.47747e-013 -6.75868e-015
lhumerus -27.0366 21.7485 72.9362
lradius 131.829
lwrist 58.794
lhand 7.62053 4.55326
lfingers 7.12502
lthumb 32.8662 31.5816
rfemur 31.6638 -9.58394 20.8918
rtibia 29.0754
rfoot 6.87663 -6.05829
rtoes -24.9579
lfemur -33.676 -2.84745 -10.6735
ltibia 21.7903
lfoot 18.2154 -2.21001
ltoes -30.7239
120
root 20.8822 16.3938 -21.2843 -175.776 41.5558 -172.778
lowerback 3.47507 10.1293 6.34997
upperback 3.04053 13.788 -0.371191
thorax 2.81657 7.10072 -3.75216
lowerneck 8.80482 -12.6794 -18.3196
upperneck -10.6378 -17.2686 23.4474
head -0.67415 -9.08253 10.2846
rclavicle 1.47598e-014 1.98785e-015
rhumerus -17.2236 -14.1433 -83.003
rradius 36.0561
rwrist 3.59733
rhand -19.8536 23.1424
rfingers 7.12502
rthumb 6.48115 -6.73844
lclavicle 1.47598e-014 1.98785e-015
lhumerus -26.6748 21.9879 71.962
lradius 131.936
lwrist 56.4687
lhand 5.90248 0.913812
lfingers 7.12502
lthumb 31.2304 28.2711
rfemur 31.3761 -9.21018 20.1971
rtibia 32.018
rfoot 6.61004 -5.80047
rtoes -27.6957
lfemur -32.7724 -2.18541 -10.3067
ltibia 19.1449
lfoot 18.5202 -0.487237
ltoes -30.8378
121
root 21.2646 16.3178 -21.6434 -175.613 42.208 -172.234
lowerback 2.58102 10.0609 5.96875
upperback 3.56132 13.6228 0.799873
thorax 3.45279 7.01625 -2.18542
lowerneck 8.37867 -12.2479 -20.7114
upperneck -10.8331 -16.88 24.3506
head -0.419303 -8.83504 10.9466
rclavicle -9.9442e-014 1.37161e-014
rhumerus -17.357 -13.0748 -81.8458
rradius 36.0871
rwrist 3.19332
rhand -19.8028 23.0859
rfingers 7.12502
rthumb 6.53017 -6.79347
lclavicle -9.9442e-014 1.37161e-014
lhumerus -26.5726 24.0386 72.1983
lradius 133.246
lwrist 58.0154
lhand 3.17878 0.794289
lfingers 7.12502
lthumb 28.6314 28.6208
rfemur 30.9116 -8.76752 19.6365
rtibia 35.4856
rfoot 5.99246 -5.74904
rtoes -25.8305
lfemur -31.7055 -1.27914 -9.96033
ltibia 17.2152
lfoot 18.3899 -0.384704
ltoes -35.9015
122
root 21.6495 16.2347 -21.9963 -175.876 42.9638 -172.199
lowerback 2.72566 9.94756 5.88033
upperback 3.46528 13.4742 1.10582
thorax 3.16294 6.92678 -1.89275
lowerneck 7.76736 -12.365 -18.0463
upperneck -11.0939 -16.716 21.6769
head -0.966402 -8.68525 9.6728
rclavicle 1.6082e-013 -8.19987e-015
rhumerus -18.2167 -13.3412 -81.4899
rradius 36.1708
rwrist 2.86491
rhand -19.7881 23.043
rfingers 7.12502
rthumb 6.54439 -6.83589
lclavicle 1.6082e-013 -8.19987e-015
lhumerus -26.752 18.6865 74.4412
lradius 128.573
lwrist 32.4463
lhand -4.20589 -23.4583
lfingers 7.12502
lthumb 21.5562 5.36208
rfemur 30.2456 -8.1608 18.7371
rtibia 39.3039
rfoot 5.3864 -5.69974
rtoes -22.4439
lfemur -30.543 -0.182164 -10.1624
ltibia 15.9286
lfoot 19.8042 -1.20004
ltoes -39.0842
123
root 22.0194 16.1168 -22.3474 -176.348 43.2895 -172.644
lowerback 2.67786 9.77119 5.59075
upperback 3.39233 13.2258 1.27196
thorax 2.98619 6.7862 -1.60106
lowerneck 8.14405 -12.1482 -18.9266
upperneck -11.5386 -16.4895 22.3424
head -1.04967 -8.58934 10.0894
rclavicle -7.5973e-014 -3.34455e-014
rhumerus -19.0392 -13.8733 -80.9328
rradius 36.3049
rwrist 2.56098
rhand -19.7906 22.9556
rfingers 7.12502
rthumb 6.54197 -6.92337
lclavicle -7.5973e-014 -3.34455e-014
lhumerus -27.5137 16.5319 75.208
lradius 122.844
lwrist -4.9642
lhand -39.125 -23.7319
lfingers 7.12502
lthumb -12.1241 5.89678
rfemur 29.3133 -8.08684 17.4141
rtibia 43.368
rfoot 4.98775 -5.15897
rtoes -26.5778
lfemur -29.3552 0.392567 -10.653
ltibia 15.1547
lfoot 21.2792 0.191242
ltoes -35.5983
124
root 22.3877 15.9869 -22.6938 -177.149 43.53 -173.258
lowerback 2.87763 9.54138 5.33443
upperback 3.45266 12.928 1.26835
thorax 2.86 6.63214 -1.52182
lowerneck 8.05526 -11.8581 -20.6767
upperneck -11.4938 -16.1785 24.1134
head -0.736693 -8.44633 10.9477
rclavicle -2.33572e-014 -4.96962e-015
rhumerus -19.681 -14.9864 -80.5481
rradius 36.4042
rwrist 2.68798
rhand -19.8221 22.9797
rfingers 7.12502
rthumb 6.51159 -6.90017
lclavicle -2.33572e-014 -4.96962e-015
lhumerus -27.8489 16.5569 74.5158
lradius 119.664
lwrist -28.3464
lhand -47.9688 -11.0478
lfingers 7.12502
lthumb -20.6384 17.8749
rfemur 28.4074 -8.07784 15.9365
rtibia 47.5899
rfoot 4.42355 -4.79648
rtoes -31.8805
lfemur -28.1834 0.9205 -11.2832
ltibia 14.7303
lfoot 23.1956 1.3544
ltoes -30.3722
125
root 22.7588 15.855 -23.0339 -178.397 43.89 -174.144
lowerback 3.31211 9.2751 4.73204
upperback 3.69292 12.5944 1.35076
thorax 2.69676 6.4584 -1.20733
lowerneck 6.97724 -12.3023 -16.363
upperneck -11.9728 -16.2634 20.3428
head -1.46044 -8.40066 9.03272
rclavicle 3.15943e-014 -3.27995e-015
rhumerus -20.2246 -15.3694 -80.2633
rradius 36.3596
rwrist 2.84643
rhand -19.8482 23.052
rfingers 7.12502
rthumb 6.48632 -6.8287
lclavicle 3.15943e-014 -3.27995e-015
lhumerus -27.5457 16.4591 74.0973
lradius 118.252
lwrist -38.6384
lhand -50.6497 -0.899336
lfingers 7.12502
lthumb -23.2125 27.7218
rfemur 27.5307 -7.88095 14.2056
rtibia 51.9321
rfoot 3.85648 -4.73578
rtoes -33.2233
lfemur -26.7548 -0.424348 -11.4592
ltibia 14.9427
lfoot 24.5038 2.30434
ltoes -25.6769
126
root 23.1284 15.713 -23.3689 -179.648 44.3185 -174.948
lowerback 3.81292 9.00945 4.08375
upperback 3.97383 12.2629 1.53711
thorax 2.51411 6.28543 -0.767598
lowerneck 6.62295 -12.2222 -19.4166
upperneck -11.7646 -16.2868 23.063
head -0.773722 -8.40308 10.2911
rclavicle 5.44918e-014 -5.96354e-015
rhumerus -20.7633 -14.8142 -79.97
rradius 36.2466
rwrist 2.71825
rhand -19.8241 23.0267
rfingers 7.12502
rthumb 6.50964 -6.85321
lclavicle 5.44918e-014 -5.96354e-015
lhumerus -26.7707 16.1088 74.5362
lradius 117.885
lwrist -39.1615
lhand -50.5728 5.6737
lfingers 7.12502
lthumb -23.1388 34.3041
rfemur 26.531 -7.55018 12.6107
rtibia 56.2402
rfoot 3.43433 -4.91751
rtoes -31.9488
lfemur -25.8777 -1.39111 -11.779
ltibia 16.5905
lfoot 24.7322 0.569073
ltoes -19.3086
127
root 23.4928 15.5484 -23.6991 -180.732 44.4693 -175.566
lowerback 4.3611 8.67629 3.70013
upperback 4.12219 11.8432 1.59712
thorax 2.2548 6.07153 -0.598973
lowerneck 6.12897 -12.0372 -20.8479
upperneck -11.4817 -16.0383 24.524
head -0.373579 -8.25783 10.957
rclavicle 1.6201e-014 -1.98785e-016
rhumerus -21.561 -14.36 -79.7963
rradius 36.1202
rwrist 2.6393
rhand -19.8097 23.0014
rfingers 7.12502
rthumb 6.52351 -6.87813
lclavicle 1.6201e-014 -1.98785e-016
lhumerus -26.139 13.5186 75.603
lradius 120.163
lwrist -24.9191
lhand -44.6349 -6.74883
lfingers 7.12502
lthumb -17.4323 22.4895
rfemur 25.3997 -7.48416 11.1823
rtibia 60.5488
rfoot 2.86058 -5.31989
rtoes -29.1468
lfemur -25.3934 -2.41753 -12.1177
ltibia 19.8608
lfoot 20.7262 -2.30106
ltoes -8.44206
128
root 23.8562 15.3834 -24.0292 -181.869 44.4331 -176.062
lowerback 4.84987 8.29101 3.38995
upperback 4.4059 11.3578 1.7192
thorax 2.17437 5.83337 -0.371279
lowerneck 5.95913 -12.0262 -20.7148
upperneck -11.9055 -15.882 24.7709
head -0.479417 -8.17461 11.042
rclavicle 7.23079e-015 -1.66979e-014
rhumerus -22.237 -14.2494 -79.4833
rradius 36.0313
rwrist 2.61184
rhand -19.8419 23.0283
rfingers 7.12502
rthumb 6.49246 -6.85216
lclavicle 7.23079e-015 -1.66979e-014
lhumerus -25.6777 11.706 76.3478
lradius 120.427
lwrist -22.8699
lhand -43.182 -6.47243
lfingers 7.12502
lthumb -16.0336 22.8841
rfemur 24.4182 -7.72624 9.68564
rtibia 64.7278
rfoot 2.31344 -5.51536
rtoes -29.6592
lfemur -25.1586 -3.06765 -12.3811
ltibia 24.4007
lfoot 12.4786 -5.5308
ltoes -4.62956
129
root 24.2022 15.2132 -24.3498 -183.13 44.3117 -176.784
lowerback 5.26182 7.79205 2.76635
upperback 4.88022 10.7147 2.01168
thorax 2.24643 5.51418 0.229325
lowerneck 5.44319 -12.0457 -21.1346
upperneck -12.3385 -15.7633 25.1246
head -0.460749 -8.07422 11.2164
rclavicle -7.32522e-014 -2.38542e-014
rhumerus -22.442 -14.0721 -78.8693
rradius 35.9841
rwrist 2.67219
rhand -19.8503 23.0228
rfingers 7.12502
rthumb 6.4843 -6.85797
lclavicle -7.32522e-014 -2.38542e-014
lhumerus -25.0347 11.8571 77.3461
lradius 118.444
lwrist -31.8489
lhand -45.3219 -0.960608
lfingers 7.12502
lthumb -18.0934 28.2178
rfemur 23.1851 -8.09157 7.9033
rtibia 68.9454
rfoot 1.58553 -5.39853
rtoes -31.5228
lfemur -25.1025 -3.42419 -12.7351
ltibia 29.6999
lfoot 6.45654 -7.9255
ltoes -1.46521
130
root 24.5353 15.06 -24.6579 -184.54 44.0896 -177.994
lowerback 6.16197 7.1555 1.54701
upperback 4.94434 9.85696 2.26923
thorax 1.54972 5.05555 1.01453
lowerneck 6.04639 -11.5944 -22.3752
upperneck -13.369 -15.1119 26.5562
head -0.729494 -7.7885 12.0883
rclavicle 9.73548e-014 -1.19271e-014
rhumerus -23.1005 -12.9965 -78.4808
rradius 36.0532
rwrist 2.78575
rhand -19.8019 22.9253
rfingers 7.12502
rthumb 6.53104 -6.95399
lclavicle 9.73548e-014 -1.19271e-014
lhumerus -25.1643 11.1129 78.4652
lradius 117.689
lwrist -34.6395
lhand -46.3508 3.19571
lfingers 7.12502
lthumb -19.0831 32.2795
rfemur 21.4199 -8.42411 5.9217
rtibia 73.2204
rfoot 0.392801 -5.18338
rtoes -30.3391
lfemur -25.3582 -2.19872 -13.8186
ltibia 34.8767
lfoot 4.81623 -4.90574
ltoes 39.9494
